<?xml version="1.0" encoding="UTF-8" standalone="no"?>
<!DOCTYPE svg PUBLIC "-//W3C//DTD SVG 1.1//EN"
 "http://www.w3.org/Graphics/SVG/1.1/DTD/svg11.dtd">
<!-- Generated by graphviz version 2.40.1 (20161225.0304)
 -->
<!-- Title: dependencies Pages: 1 -->
<svg width="1036pt" height="284pt"
 viewBox="0.00 0.00 1036.00 284.00" xmlns="http://www.w3.org/2000/svg" xmlns:xlink="http://www.w3.org/1999/xlink">
<g id="graph0" class="graph" transform="scale(1 1) rotate(0) translate(4 280)">
<title>dependencies</title>
<polygon fill="#ffffff" stroke="transparent" points="-4,4 -4,-280 1032,-280 1032,4 -4,4"/>
<text text-anchor="start" x="493.0091" y="-42.4" font-family="sans-serif" font-weight="bold" font-size="14.00" fill="#000000">Legend</text>
<polygon fill="#ffffb3" stroke="transparent" points="280,-10 280,-30 300,-30 300,-10 280,-10"/>
<text text-anchor="start" x="303.629" y="-15.4" font-family="sans-serif" font-size="14.00" fill="#000000"> &#160;Declarations</text>
<polygon fill="#8dd3c7" stroke="transparent" points="393,-10 393,-30 413,-30 413,-10 393,-10"/>
<text text-anchor="start" x="416.7251" y="-15.4" font-family="sans-serif" font-size="14.00" fill="#000000"> &#160;Module</text>
<polygon fill="#80b1d3" stroke="transparent" points="479,-10 479,-30 499,-30 499,-10 479,-10"/>
<text text-anchor="start" x="502.7812" y="-15.4" font-family="sans-serif" font-size="14.00" fill="#000000"> &#160;Bootstrap</text>
<polygon fill="#fdb462" stroke="transparent" points="576,-10 576,-30 596,-30 596,-10 576,-10"/>
<text text-anchor="start" x="599.6732" y="-15.4" font-family="sans-serif" font-size="14.00" fill="#000000"> &#160;Providers</text>
<polygon fill="#fb8072" stroke="transparent" points="672,-10 672,-30 692,-30 692,-10 672,-10"/>
<text text-anchor="start" x="695.7258" y="-15.4" font-family="sans-serif" font-size="14.00" fill="#000000"> &#160;Exports</text>
<g id="clust1" class="cluster">
<title>cluster_AppModule</title>
<polygon fill="none" stroke="#000000" stroke-dasharray="1,5" points="8,-70 8,-268 1020,-268 1020,-70 8,-70"/>
</g>
<g id="clust2" class="cluster">
<title>cluster_AppModule_declarations</title>
<polygon fill="none" stroke="#000000" points="337,-78 337,-130 1012,-130 1012,-78 337,-78"/>
</g>
<g id="clust10" class="cluster">
<title>cluster_AppModule_bootstrap</title>
<polygon fill="none" stroke="#000000" points="491,-208 491,-260 615,-260 615,-208 491,-208"/>
</g>
<g id="clust11" class="cluster">
<title>cluster_AppModule_providers</title>
<polygon fill="none" stroke="#000000" points="16,-78 16,-130 329,-130 329,-78 16,-78"/>
</g>
<!-- AppComponent -->
<g id="node1" class="node">
<title>AppComponent</title>
<polygon fill="#ffffb3" stroke="#000000" points="1003.9399,-122 898.0601,-122 898.0601,-86 1003.9399,-86 1003.9399,-122"/>
<text text-anchor="middle" x="951" y="-99.8" font-family="Times,serif" font-size="14.00" fill="#000000">AppComponent</text>
</g>
<!-- AppModule -->
<g id="node6" class="node">
<title>AppModule</title>
<polygon fill="#8dd3c7" stroke="#000000" points="594.6571,-187 591.6571,-191 570.6571,-191 567.6571,-187 511.3429,-187 511.3429,-151 594.6571,-151 594.6571,-187"/>
<text text-anchor="middle" x="553" y="-164.8" font-family="Times,serif" font-size="14.00" fill="#000000">AppModule</text>
</g>
<!-- AppComponent&#45;&gt;AppModule -->
<g id="edge1" class="edge">
<title>AppComponent&#45;&gt;AppModule</title>
<path fill="none" stroke="#000000" d="M951,-122.2921C951,-144.2057 951,-178 951,-178 951,-178 604.8407,-178 604.8407,-178"/>
<polygon fill="#000000" stroke="#000000" points="604.8408,-174.5001 594.8407,-178 604.8407,-181.5001 604.8408,-174.5001"/>
</g>
<!-- HomeComponent -->
<g id="node2" class="node">
<title>HomeComponent</title>
<polygon fill="#ffffb3" stroke="#000000" points="880.5451,-122 765.4549,-122 765.4549,-86 880.5451,-86 880.5451,-122"/>
<text text-anchor="middle" x="823" y="-99.8" font-family="Times,serif" font-size="14.00" fill="#000000">HomeComponent</text>
</g>
<!-- HomeComponent&#45;&gt;AppModule -->
<g id="edge2" class="edge">
<title>HomeComponent&#45;&gt;AppModule</title>
<path fill="none" stroke="#000000" d="M823,-122.1061C823,-141.3391 823,-169 823,-169 823,-169 604.8913,-169 604.8913,-169"/>
<polygon fill="#000000" stroke="#000000" points="604.8913,-165.5001 594.8913,-169 604.8912,-172.5001 604.8913,-165.5001"/>
</g>
<!-- TopoComponent -->
<g id="node3" class="node">
<title>TopoComponent</title>
<polygon fill="#ffffb3" stroke="#000000" points="747.3851,-122 636.6149,-122 636.6149,-86 747.3851,-86 747.3851,-122"/>
<text text-anchor="middle" x="692" y="-99.8" font-family="Times,serif" font-size="14.00" fill="#000000">TopoComponent</text>
</g>
<!-- TopoComponent&#45;&gt;AppModule -->
<g id="edge3" class="edge">
<title>TopoComponent&#45;&gt;AppModule</title>
<path fill="none" stroke="#000000" d="M692,-122.027C692,-138.3976 692,-160 692,-160 692,-160 604.7046,-160 604.7046,-160"/>
<polygon fill="#000000" stroke="#000000" points="604.7046,-156.5001 594.7046,-160 604.7045,-163.5001 604.7046,-156.5001"/>
</g>
<!-- CarrinhoComponent -->
<g id="node4" class="node">
<title>CarrinhoComponent</title>
<polygon fill="#ffffb3" stroke="#000000" points="618.5954,-122 487.4046,-122 487.4046,-86 618.5954,-86 618.5954,-122"/>
<text text-anchor="middle" x="553" y="-99.8" font-family="Times,serif" font-size="14.00" fill="#000000">CarrinhoComponent</text>
</g>
<!-- CarrinhoComponent&#45;&gt;AppModule -->
<g id="edge4" class="edge">
<title>CarrinhoComponent&#45;&gt;AppModule</title>
<path fill="none" stroke="#000000" d="M553,-122.1061C553,-122.1061 553,-140.991 553,-140.991"/>
<polygon fill="#000000" stroke="#000000" points="549.5001,-140.9909 553,-150.991 556.5001,-140.991 549.5001,-140.9909"/>
</g>
<!-- RodapeComponent -->
<g id="node5" class="node">
<title>RodapeComponent</title>
<polygon fill="#ffffb3" stroke="#000000" points="469.0982,-122 344.9018,-122 344.9018,-86 469.0982,-86 469.0982,-122"/>
<text text-anchor="middle" x="407" y="-99.8" font-family="Times,serif" font-size="14.00" fill="#000000">RodapeComponent</text>
</g>
<!-- RodapeComponent&#45;&gt;AppModule -->
<g id="edge5" class="edge">
<title>RodapeComponent&#45;&gt;AppModule</title>
<path fill="none" stroke="#000000" d="M407,-122.027C407,-138.3976 407,-160 407,-160 407,-160 501.1623,-160 501.1623,-160"/>
<polygon fill="#000000" stroke="#000000" points="501.1623,-163.5001 511.1623,-160 501.1622,-156.5001 501.1623,-163.5001"/>
</g>
<!-- AppComponent  -->
<g id="node7" class="node">
<title>AppComponent </title>
<polygon fill="#80b1d3" stroke="#000000" points="607.439,-252 498.561,-252 498.561,-216 607.439,-216 607.439,-252"/>
<text text-anchor="middle" x="553" y="-229.8" font-family="Times,serif" font-size="14.00" fill="#000000">AppComponent </text>
</g>
<!-- AppModule&#45;&gt;AppComponent  -->
<g id="edge6" class="edge">
<title>AppModule&#45;&gt;AppComponent </title>
<path fill="none" stroke="#000000" stroke-dasharray="1,5" d="M553,-187.1061C553,-187.1061 553,-205.991 553,-205.991"/>
<polygon fill="#000000" stroke="#000000" points="549.5001,-205.9909 553,-215.991 556.5001,-205.991 549.5001,-205.9909"/>
</g>
<!-- LivrosService -->
<g id="node8" class="node">
<title>LivrosService</title>
<ellipse fill="#fdb462" stroke="#000000" cx="256" cy="-104" rx="65.4053" ry="18"/>
<text text-anchor="middle" x="256" y="-99.8" font-family="Times,serif" font-size="14.00" fill="#000000">LivrosService</text>
</g>
<!-- LivrosService&#45;&gt;AppModule -->
<g id="edge7" class="edge">
<title>LivrosService&#45;&gt;AppModule</title>
<path fill="none" stroke="#000000" d="M256,-122.1061C256,-141.3391 256,-169 256,-169 256,-169 501.0771,-169 501.0771,-169"/>
<polygon fill="#000000" stroke="#000000" points="501.0771,-172.5001 511.0771,-169 501.077,-165.5001 501.0771,-172.5001"/>
</g>
<!-- CarrinhoService -->
<g id="node9" class="node">
<title>CarrinhoService</title>
<ellipse fill="#fdb462" stroke="#000000" cx="98" cy="-104" rx="74.1354" ry="18"/>
<text text-anchor="middle" x="98" y="-99.8" font-family="Times,serif" font-size="14.00" fill="#000000">CarrinhoService</text>
</g>
<!-- CarrinhoService&#45;&gt;AppModule -->
<g id="edge8" class="edge">
<title>CarrinhoService&#45;&gt;AppModule</title>
<path fill="none" stroke="#000000" d="M98,-122.2921C98,-144.2057 98,-178 98,-178 98,-178 501.0103,-178 501.0103,-178"/>
<polygon fill="#000000" stroke="#000000" points="501.0103,-181.5001 511.0103,-178 501.0102,-174.5001 501.0103,-181.5001"/>
</g>
</g>
</svg>
